<?xml version="1.0" encoding="UTF-8"?>
<svg id="Layer_2" data-name="Layer 2" xmlns="http://www.w3.org/2000/svg" viewBox="0 0 64.37 64.41">
  <defs>
    <style>
      .cls-1 {
        fill: #efefef;
      }
    </style>
  </defs>
  <g id="Layer_1-2" data-name="Layer 1">
    <g id="pGgj8v">
      <path class="cls-1" d="M42.81,1.81C17.56-6.81-6.47,16.8,1.58,42.22c7.4,23.37,38.16,29.95,54.52,11.65,15.33-17.14,8.47-44.63-13.29-52.06ZM8.41,25.04c5.36,4.43,12.1,6.67,19.07,6.57l-15.39,15.28c-4.52-6.29-5.93-14.4-3.68-21.85ZM39.17,56.12c-7.39,2.12-15.45.71-21.64-3.8l15.48-15.59c-.25,2.3.05,4.89.51,7.19.46,2.27,1.4,4.91,2.46,6.97.9,1.75,2.24,3.22,3.19,4.82.11.19.34.14,0,.41ZM52.05,47.26c-.75,1-4.45,5.03-5.45,5.23-.61.13-2-1.71-2.39-2.24-6.37-8.74-4.83-20.87,3.15-28,.05-.19-.1-.27-.18-.39-.33-.49-4.12-4.28-4.62-4.62-.22-.15-.22-.26-.52-.11-.49.26-1.75,1.86-2.37,2.37-7.94,6.65-20.62,6.25-27.75-1.36,3.6-5.98,11.06-10.08,17.98-10.67,21.49-1.84,35.18,22.53,22.15,39.79Z"/>
    </g>
  </g>
</svg>